HIERARCHY
ROOT Hips
{
	OFFSET 0.000000 0.000000 0.000000
	CHANNELS 6 Xposition Yposition Zposition Zrotation Yrotation Xrotation 
	JOINT LHipJoint
	{
		OFFSET 0.000000 0.000000 0.000000
		CHANNELS 3 Zrotation Yrotation Xrotation
		JOINT LeftUpLeg
		{
			OFFSET 1.363060 -1.794630 0.839290
			CHANNELS 3 Zrotation Yrotation Xrotation
			JOINT LeftLeg
			{
				OFFSET 2.448110 -6.726130 0.000000
				CHANNELS 3 Zrotation Yrotation Xrotation
				JOINT LeftFoot
				{
					OFFSET 2.562200 -7.039590 0.000000
					CHANNELS 3 Zrotation Yrotation Xrotation
					JOINT LeftToeBase
					{
						OFFSET 0.157640 -0.433110 2.322550
						CHANNELS 3 Zrotation Yrotation Xrotation
						End Site
						{
							OFFSET 0.000000 0.000000 0.000000
						}
					}
				}
			}
		}
	}
	JOINT RHipJoint
	{
		OFFSET 0.000000 0.000000 0.000000
		CHANNELS 3 Zrotation Yrotation Xrotation
		JOINT RightUpLeg
		{
			OFFSET -1.305520 -1.794630 0.839290
			CHANNELS 3 Zrotation Yrotation Xrotation
			JOINT RightLeg
			{
				OFFSET -2.542530 -6.985550 0.000000
				CHANNELS 3 Zrotation Yrotation Xrotation
				JOINT RightFoot
				{
					OFFSET -2.568260 -7.056230 0.000000
					CHANNELS 3 Zrotation Yrotation Xrotation
					JOINT RightToeBase
					{
						OFFSET -0.164730 -0.452590 2.363150
						CHANNELS 3 Zrotation Yrotation Xrotation
						End Site
						{
							OFFSET 0.000000 0.000000 0.000000
						}
					}
				}
			}
		}
	}
}
MOTION
Frames: 33
Frame Time: 0.008333
-20.820808 16.082989 -2.436455 -111.674493 88.701088 -87.962783 -13.166259 4.230159 0.544489 -0.892904 10.401569 3.833661 -1.220641 -0.414640 5.964782 0.885951 7.396357 0.974117 1.010901 0.000000 -78.472000 6.711318 -0.756029 6.177804 5.881514 12.100814 -62.431356 1.597424 -2.443996 38.883471 -1.326238 -2.975520 -9.199585 -0.367500 0.000000 -29.201201
-20.585011 16.101209 -2.396175 -107.775245 88.620863 -83.943589 -13.231498 4.303869 0.662640 -0.625040 9.946348 3.295163 -0.987830 -0.211708 7.771579 0.987467 8.350890 3.230950 1.453600 0.000000 -80.310300 6.641835 -0.888410 6.240518 6.156087 12.580408 -61.887483 1.484725 -2.461103 39.444173 -1.489787 -3.700658 -9.254041 -0.401700 -0.000000 -28.078099
-20.350175 16.124479 -2.353416 -103.358978 88.540810 -79.420390 -13.275758 4.347818 0.766713 -0.413804 9.490870 2.576859 -0.737989 -0.010989 9.902932 1.106779 9.285831 5.577933 1.957700 0.000000 -81.208700 6.592591 -1.018368 6.297545 6.430465 13.017242 -61.294420 1.398157 -2.474299 39.894799 -1.626398 -4.287771 -9.374146 -0.417899 0.000000 -27.102200
-20.117666 16.152979 -2.308655 -98.528651 88.457230 -74.502680 -13.295939 4.356722 0.857191 -0.270296 9.027736 1.675655 -0.477920 0.180001 12.371413 1.241519 10.155465 7.936563 2.497100 -0.000000 -80.963700 6.568880 -1.141611 6.339840 6.712235 13.386260 -60.630987 1.342166 -2.483812 40.222577 -1.729280 -4.707092 -9.568359 -0.411500 0.000000 -26.330800
-19.888484 16.186773 -2.262433 -93.386855 88.366645 -69.297776 -13.289476 4.327341 0.935117 -0.205041 8.550776 0.590173 -0.218679 0.354511 15.177637 1.386997 10.915662 10.204304 3.033300 -0.000000 -79.445599 6.574746 -1.254235 6.360388 7.007891 13.665483 -59.877086 1.319488 -2.488831 40.413265 -1.794163 -4.941993 -9.834845 -0.381600 0.000000 -25.810300
-19.663189 16.225837 -2.215420 -88.042010 88.262966 -63.914985 -13.255283 4.259650 1.000302 -0.222954 8.060973 -0.679380 0.025711 0.509014 18.305438 1.535917 11.529263 12.267760 3.521300 0.000000 -76.648000 6.611832 -1.353250 6.354803 7.324163 13.840596 -59.015172 1.331326 -2.487200 40.449230 -1.820004 -4.991531 -10.160976 -0.331400 0.000000 -25.567000
-19.442226 16.270008 -2.168491 -82.647320 88.136753 -58.506542 -13.197525 4.157605 1.051937 -0.317451 7.571871 -2.132782 0.241696 0.644791 21.720438 1.679084 11.970768 14.019694 3.917600 0.000000 -72.722300 6.675939 -1.438937 6.323566 7.670399 13.910254 -58.030645 1.377616 -2.475077 40.308642 -1.809594 -4.872156 -10.524984 -0.267700 0.000001 -25.608100
-19.225937 16.318954 -2.122393 -77.354834 87.982453 -53.221702 -13.121266 4.029223 1.088625 -0.482495 7.097896 -3.761942 0.419876 0.768033 25.363188 1.808410 12.243271 15.381972 4.196900 0.000000 -67.995000 6.761505 -1.511905 6.268680 8.049871 13.877621 -56.914360 1.456289 -2.448148 39.973251 -1.767823 -4.609735 -10.900804 -0.198700 -0.000000 -25.923400
-19.013980 16.372329 -2.077759 -72.288000 87.796498 -48.182312 -13.032984 3.883808 1.108192 -0.710605 6.653805 -5.548688 0.557950 0.887841 29.154607 1.918855 12.378183 16.316773 4.357100 0.000000 -62.895700 6.861346 -1.573623 6.192469 8.461572 13.750371 -55.660069 1.564036 -2.402121 39.428310 -1.700846 -4.235641 -11.262074 -0.131800 0.000000 -26.479600
-18.805992 16.429748 -2.035138 -67.588562 87.576684 -43.526027 -12.941476 3.729218 1.110503 -0.989877 6.251884 -7.471440 0.660879 1.012451 33.005802 2.009206 12.426449 16.824607 4.416800 -0.000000 -57.883800 6.965589 -1.628035 6.100050 8.903306 13.544523 -54.266564 1.696767 -2.332594 38.659961 -1.616404 -3.787873 -11.584104 -0.073300 0.000000 -27.223800
-18.601453 16.490773 -1.994827 -63.334575 87.326330 -39.329046 -12.853565 3.570584 1.096818 -1.311947 5.898020 -9.501986 0.737903 1.146993 36.827855 2.081843 12.450771 16.930364 4.407201 0.000000 -53.325700 7.066225 -1.678859 5.996465 9.365814 13.275056 -52.736680 1.849511 -2.236297 37.661276 -1.521565 -3.301621 -11.847101 -0.026600 0.000000 -28.087000
-18.399157 16.555005 -1.956806 -59.567677 87.050742 -35.629981 -12.773254 3.409913 1.069540 -1.669130 5.592816 -11.612110 0.798981 1.292743 40.538581 2.141392 12.511787 16.670085 4.360300 -0.000001 -49.442900 7.157476 -1.728855 5.886987 9.837182 12.958343 -51.078082 2.017066 -2.110854 36.429721 -1.422692 -2.808873 -12.037165 0.007200 0.000000 -28.991700
-18.198731 16.621957 -1.920912 -56.290245 86.757216 -32.427119 -12.701490 3.246948 1.031541 -2.054647 5.332734 -13.775239 0.852057 1.447824 44.066930 2.193246 12.658642 16.077736 4.300501 -0.000000 -46.285400 7.236289 -1.779203 5.776359 10.302877 12.610104 -49.302093 2.194084 -1.954906 34.968081 -1.324761 -2.335925 -12.145034 0.028600 -0.000000 -29.864000
-17.999025 16.691079 -1.886665 -53.461924 86.455266 -29.677928 -12.636587 3.080851 0.987424 -2.463171 5.109500 -15.965572 0.902230 1.607919 47.351428 2.243365 12.928184 15.191374 4.243800 0.000000 -43.855000 7.302191 -1.829846 5.669487 10.747283 12.244795 -47.422718 2.375091 -1.768227 33.286536 -1.231190 -1.901941 -12.166813 0.039100 0.000001 -30.640800
-17.799431 16.761764 -1.853537 -51.031445 86.154241 -27.327273 -12.574804 2.910421 0.940402 -2.888946 4.912966 -18.161576 0.950768 1.768493 50.344466 2.296441 13.335217 14.035764 4.190700 0.000000 -41.962900 7.356791 -1.878684 5.569072 11.155638 11.875239 -45.454789 2.554785 -1.551401 31.398236 -1.143868 -1.520027 -12.099314 0.040501 -0.000000 -31.288200
-17.599433 16.833241 -1.820749 -48.890307 85.865348 -25.266155 -12.510774 2.736298 0.896056 -3.331378 4.727583 -20.342002 0.996780 1.924386 53.006973 2.357823 13.885610 12.657349 4.138400 0.000000 -40.583400 7.404470 -1.922436 5.477279 11.511358 11.509029 -43.415163 2.727500 -1.306437 29.326632 -1.062954 -1.194507 -11.943556 0.034500 -0.000000 -31.790600
-17.398718 16.904663 -1.787507 -46.920069 85.599510 -23.374971 -12.438828 2.560372 0.858739 -3.791596 4.537612 -22.490652 1.037001 2.071884 55.315434 2.430666 14.563342 11.090149 4.072500 0.000001 -39.533100 7.450945 -1.956948 5.393569 11.799732 11.148892 -41.320137 2.887700 -1.036595 27.100777 -0.987319 -0.923599 -11.700650 0.022500 -0.000000 -32.163200
-17.196837 16.975162 -1.753054 -44.979632 85.366643 -21.510884 -12.353405 2.385947 0.832078 -4.274306 4.326127 -24.596151 1.067248 2.208709 57.258950 2.516762 15.339158 9.372766 3.975200 -0.000000 -38.632200 7.503034 -1.977327 5.314833 12.006663 10.791813 -39.188698 3.030112 -0.746580 24.756543 -0.914891 -0.699781 -11.373436 0.005400 -0.000000 -32.439200
-16.993993 17.043677 -1.716729 -42.928972 85.174969 -19.540244 -12.251614 2.217509 0.820235 -4.783585 4.079630 -26.646070 1.083940 2.333568 58.840369 2.616173 16.173113 7.548824 3.829900 0.000000 -37.722001 7.566011 -1.981347 5.237024 12.123418 10.429289 -37.033784 3.150223 -0.442928 22.337076 -0.843345 -0.512654 -10.966652 -0.015700 0.000000 -32.677400
-16.790273 17.109121 -1.677906 -40.570111 85.030102 -17.263009 -12.130857 2.060981 0.826944 -5.330702 3.782984 -28.639471 1.083509 2.446853 60.071918 2.727189 17.020246 5.660891 3.623800 -0.000000 -36.634799 7.645542 -1.966045 5.154116 12.140530 10.046009 -34.879602 3.244658 -0.133421 19.894597 -0.769724 -0.344483 -10.491904 -0.039499 0.000000 -32.910300
-16.586061 17.170414 -1.636325 -37.740242 84.931830 -14.519548 -11.993054 1.920736 0.854316 -5.920773 3.427292 -30.573182 1.063986 2.549739 60.973539 2.846459 17.833884 3.753776 3.351700 -0.000000 -35.262500 7.742003 -1.932013 5.058929 12.057994 9.625632 -32.742752 3.312480 0.173606 17.479467 -0.691851 -0.179012 -9.962299 -0.064400 -0.000000 -33.181300
-16.381274 17.226471 -1.592005 -34.266583 84.876080 -11.139575 -11.843981 1.799314 0.904442 -6.556966 3.007124 -32.446971 1.024685 2.643443 61.568364 2.969586 18.572238 1.871201 3.017600 -0.000001 -33.571400 7.850623 -1.882773 4.945397 11.881032 9.152063 -30.640340 3.355041 0.470204 15.140292 -0.608551 -0.001012 -9.396761 -0.088399 0.000000 -33.510400
-16.176402 17.276306 -1.545299 -30.019550 84.855371 -6.994433 -11.693786 1.694576 0.978105 -7.236251 2.521381 -34.260403 0.966424 2.728102 61.878933 3.091450 19.200134 0.053071 2.633300 -0.000000 -31.605600 7.960233 -1.825386 4.809236 11.620853 8.614509 -28.586310 3.375965 0.749684 12.916132 -0.520294 0.199009 -8.817535 -0.109400 -0.000001 -33.898200
-15.971422 17.319016 -1.496871 -24.938405 84.864190 -2.023849 -11.554946 1.597634 1.074651 -7.948038 1.971739 -36.011689 0.891620 2.801255 61.925424 3.206615 19.690039 -1.667955 2.216300 0.000000 -29.471300 8.055369 -1.770556 4.649443 11.294565 8.009967 -26.590945 3.380230 1.006889 10.831071 -0.429617 0.421181 -8.248516 -0.125800 0.000000 -34.323100
-15.766465 17.353879 -1.447644 -19.132499 84.902842 3.667258 -11.436630 1.492344 1.191585 -8.670017 1.363300 -37.699710 0.804121 2.856517 61.726161 3.309353 20.018518 -3.275695 1.783400 0.000001 -27.235699 8.122569 -1.731951 4.471114 10.927878 7.349588 -24.662195 3.372988 1.238034 8.890822 -0.341688 0.651775 -7.714259 -0.136700 0.000000 -34.738200
-15.561643 17.380437 -1.398443 -12.727025 84.979115 9.950921 -11.337422 1.362504 1.324489 -9.383892 0.697995 -39.307428 0.708807 2.884257 61.286432 3.395543 20.180003 -4.732977 1.362001 0.000000 -25.169800 8.161809 -1.720319 4.277947 10.543148 6.634702 -22.799296 3.357411 1.439023 7.092504 -0.260530 0.881497 -7.237131 -0.141600 0.000000 -35.126400
-15.356631 17.398305 -1.350471 -6.282156 85.093405 16.278850 -11.239873 1.199201 1.467727 -10.043221 -0.006615 -40.839863 0.608549 2.877994 60.618323 3.460167 20.158866 -6.044672 0.964700 0.000000 -23.266500 8.187854 -1.739470 4.084463 10.186422 5.905643 -21.005187 3.335874 1.610059 5.416210 -0.193565 1.077515 -6.835110 -0.142301 -0.000000 -35.394200
-15.151311 17.407393 -1.304558 -0.260678 85.229922 22.190097 -11.123372 1.013170 1.616709 -10.618508 -0.728728 -42.291081 0.502227 2.839424 59.717124 3.500543 19.956651 -7.196127 0.609599 0.000000 -21.627300 8.221994 -1.780251 3.895362 9.889983 5.184580 -19.271118 3.309837 1.754716 3.849687 -0.142554 1.230679 -6.518807 -0.139800 0.000000 -35.511300
-14.945457 17.407813 -1.261362 4.862861 85.359600 27.212774 -10.978989 0.825591 1.770603 -11.084642 -1.440940 -43.663006 0.386267 2.777333 58.572870 3.515271 19.582169 -8.169632 0.313500 0.000000 -20.343499 8.272726 -1.828423 3.712672 9.677159 4.498593 -17.586861 3.282088 1.881307 2.382461 -0.106917 1.338690 -6.292683 -0.135400 0.000001 -35.444200
-14.738744 17.399750 -1.221378 8.719369 85.455697 30.981679 -10.813735 0.655171 1.932249 -11.424721 -2.119660 -44.963472 0.257586 2.701377 57.175107 3.504051 19.051283 -8.944020 0.090400 0.000000 -19.482800 8.331276 -1.872805 3.536742 9.558869 3.871712 -15.944646 3.256701 1.999494 1.005527 -0.084548 1.405210 -6.156608 -0.130300 0.000000 -35.174700
-14.531140 17.383638 -1.184614 11.260764 85.507824 33.443227 -10.640739 0.510146 2.103101 -11.640213 -2.753541 -46.183747 0.115676 2.615530 55.511835 3.467434 18.389647 -9.489894 -0.047800 0.000001 -19.119300 8.385348 -1.908531 3.361450 9.526727 3.297840 -14.332111 3.236733 2.114397 -0.286950 -0.070697 1.450859 -6.104525 -0.123900 0.000000 -34.753000
-14.322293 17.359842 -1.151098 12.410549 85.512041 34.525806 -10.471696 0.393366 2.287328 -11.725334 -3.333289 -47.335571 -0.038370 2.521526 53.585856 3.406496 17.619860 -9.798373 -0.100800 0.000000 -19.182900 8.423006 -1.934510 3.188273 9.578055 2.784399 -12.751662 3.224967 2.230060 -1.499852 -0.062474 1.485283 -6.124512 -0.116700 0.000000 -34.235200
-14.112172 17.328888 -1.120545 12.309896 85.472724 34.368389 -10.311871 0.303605 2.486282 -11.686067 -3.856825 -48.419441 -0.202066 2.417484 51.403590 3.322914 16.768975 -9.860531 -0.072201 0.000000 -19.615300 8.442241 -1.951411 3.014002 9.701060 2.315101 -11.202817 3.222327 2.345952 -2.632134 -0.055421 1.528976 -6.198368 -0.108000 0.000000 -33.731600
